<?xml version="1.0" encoding="UTF-8" standalone="no"?>
<svg
   xmlns:dc="http://purl.org/dc/elements/1.1/"
   xmlns:cc="http://creativecommons.org/ns#"
   xmlns:rdf="http://www.w3.org/1999/02/22-rdf-syntax-ns#"
   xmlns:svg="http://www.w3.org/2000/svg"
   xmlns="http://www.w3.org/2000/svg"
   viewBox="0 0 1214.5853 437.85468"
   height="437.85468"
   width="1214.5853"
   xml:space="preserve"
   id="svg2"
   version="1.1"><metadata
     id="metadata8"><rdf:RDF><cc:Work
         rdf:about=""><dc:format>image/svg+xml</dc:format><dc:type
           rdf:resource="http://purl.org/dc/dcmitype/StillImage" /></cc:Work></rdf:RDF></metadata><defs
     id="defs6"><clipPath
       id="clipPath18"
       clipPathUnits="userSpaceOnUse"><path
         id="path16"
         d="M 0,328.391 H 910.94 V 0 H 0 Z" /></clipPath></defs><g
     transform="matrix(1.3333333,0,0,-1.3333333,0,437.85467)"
     id="g10"><g
       id="g12"><g
         clip-path="url(#clipPath18)"
         id="g14"><g
           transform="translate(92.9017,205.9397)"
           id="g20"><path
             id="path22"
             style="fill:#e20613;fill-opacity:1;fill-rule:nonzero;stroke:none"
             d="m 0,0 c 0,-4.22 2.52,-7.032 6.723,-7.032 2.109,0 4.909,1.267 5.751,2.39 V 8.014 C 2.239,8.296 0,4.217 0,0 m 19.204,-17.858 c -3.505,-2.953 -9.537,-6.046 -18.088,-6.046 -17.945,0 -24.811,10.685 -24.811,23.623 0,13.779 11.919,23.623 32.103,23.623 0.985,0 3.368,0 4.066,-0.141 v 4.498 c 0,4.22 -0.561,6.75 -5.888,6.75 -8.133,0 -14.439,-2.953 -20.607,-7.591 l -8.832,15.186 c 8.969,5.484 20.607,10.263 32.52,10.263 13.741,0 23.415,-4.638 26.078,-13.216 0.979,-3.234 1.123,-5.905 1.123,-11.251 L 36.587,2.812 c 0,-6.046 0.562,-10.97 5.607,-14.204 L 28.173,-25.031 c -3.505,1.127 -7.846,4.921 -8.969,7.173" /></g><g
           transform="translate(164.755,235.7503)"
           id="g24"><path
             id="path26"
             style="fill:#e20613;fill-opacity:1;fill-rule:nonzero;stroke:none"
             d="m 0,0 v -32.482 c 0.28,-1.126 2.246,-1.971 4.628,-1.971 5.751,0 10.235,1.267 10.235,20.389 0,11.393 -0.842,17.717 -7.291,17.717 C 3.649,3.653 1.266,1.967 0,0 m 12.481,22.497 c 25.373,0 28.454,-20.952 28.454,-34.45 0,-28.265 -11.215,-41.762 -30.7,-41.762 -4.347,0 -7.989,0.982 -11.358,2.39 C -0.418,-53.296 0,-56.527 0,-62.433 v -15.636 l -24.394,-3.695 v 75.999 c 0,8.718 -0.418,16.591 -2.239,24.327 l 22.429,3.794 c 0.699,-1.967 1.26,-4.217 1.541,-6.469 1.54,2.953 8.133,6.61 15.144,6.61" /></g><g
           transform="translate(278.3915,206.0807)"
           id="g28"><path
             id="path30"
             style="fill:#e20613;fill-opacity:1;fill-rule:nonzero;stroke:none"
             d="m 0,0 c 0,-7.454 1.541,-12.656 3.642,-16.454 l -21.169,-7.591 c -1.677,1.967 -2.519,5.061 -3.081,6.606 -4.21,-3.794 -10.372,-6.606 -18.088,-6.606 -13.316,0 -20.183,4.357 -22.709,12.652 -1.123,3.657 -1.404,8.018 -1.404,17.58 v 42.182 l 24.394,3.938 V -0.282 c 0,-4.501 2.246,-5.483 6.449,-5.483 2.383,0 5.47,1.404 7.573,3.653 V 48.369 L 0,52.307 Z" /></g><g
           transform="translate(321.5103,241.2335)"
           id="g32"><path
             id="path34"
             style="fill:#e20613;fill-opacity:1;fill-rule:nonzero;stroke:none"
             d="M 0,0 C -5.189,0 -8.558,-3.234 -8.558,-12.938 H 7.709 C 7.99,-4.92 5.888,0 0,0 m 3.081,-42.044 c 6.306,0 12.755,2.39 19.067,7.31 l 9.394,-14.06 c -9.674,-7.451 -18.65,-10.404 -29.44,-10.404 -23.134,0 -35.889,14.201 -35.889,37.683 0,23.905 12.474,38.529 32.945,38.529 23.271,0 32.801,-14.906 32.664,-39.796 v -6.046 h -40.38 c 0,-4.498 1.547,-13.216 11.639,-13.216" /></g><g
           transform="translate(389.5842,182.0352)"
           id="g36"><path
             id="path38"
             style="fill:#e20613;fill-opacity:1;fill-rule:nonzero;stroke:none"
             d="m 0,0 c -10.379,0 -20.471,3.372 -31.404,9.14 l 8.551,17.718 c 4.765,-2.954 16.541,-9.282 23.695,-9.282 4.341,0 7.566,2.812 7.566,5.484 0,3.938 -2.383,5.061 -9.531,6.61 l -9.393,1.967 c -11.639,2.39 -16.965,9.563 -16.965,19.825 0,14.906 11.639,24.75 29.72,24.75 14.302,0 21.594,-4.358 28.604,-7.451 L 23.271,53.574 c -7.147,3.794 -13.035,5.343 -17.808,5.343 -3.785,0 -6.305,-1.686 -6.305,-4.079 0,-2.531 1.684,-4.498 7.572,-5.765 l 8.969,-1.968 C 28.454,44.293 33.643,37.261 33.643,25.872 33.643,10.122 20.184,0 0,0" /></g><g
           transform="translate(459.9747,280.9036)"
           id="g40"><path
             id="path42"
             style="fill:#e20613;fill-opacity:1;fill-rule:nonzero;stroke:none"
             d="M 0,0 C -0.479,-4.433 -0.717,-11.852 -0.717,-22.259 H 16.907 L 13.612,-38.737 H -0.717 v -30.066 c 0,-4.531 0.288,-7.469 0.86,-8.817 0.954,-2.603 3.246,-3.904 6.876,-3.904 2.482,0 4.584,0.482 6.303,1.446 l 3.008,-14.455 c -6.017,-2.89 -12.272,-4.335 -18.766,-4.335 -7.64,0 -13.228,1.205 -16.76,3.613 -4.298,2.793 -6.446,7.612 -6.446,14.455 v 42.063 h -6.017 v 16.478 h 6.017 c 0,8.383 0.286,14.549 0.859,18.501 z" /></g><g
           transform="translate(504.0633,206.0598)"
           id="g44"><path
             id="path46"
             style="fill:#e20613;fill-opacity:1;fill-rule:nonzero;stroke:none"
             d="m 0,0 c 0,-4.22 2.52,-7.032 6.723,-7.032 2.109,0 4.909,1.267 5.751,2.39 V 8.014 C 2.239,8.296 0,4.217 0,0 m 19.204,-17.858 c -3.505,-2.953 -9.537,-6.046 -18.088,-6.046 -17.945,0 -24.811,10.685 -24.811,23.623 0,13.779 11.919,23.623 32.103,23.623 0.985,0 3.368,0 4.066,-0.141 v 4.498 c 0,4.22 -0.561,6.75 -5.888,6.75 -8.133,0 -14.439,-2.953 -20.607,-7.591 l -8.832,15.186 c 8.969,5.484 20.607,10.263 32.52,10.263 13.741,0 23.415,-4.638 26.078,-13.216 0.979,-3.234 1.123,-5.905 1.123,-11.251 L 36.587,2.812 c 0,-6.046 0.562,-10.97 5.607,-14.204 L 28.173,-25.031 c -3.505,1.127 -7.846,4.921 -8.969,7.173" /></g><g
           transform="translate(708.4612,280.3284)"
           id="g48"><path
             id="path50"
             style="fill:#000000;fill-opacity:1;fill-rule:nonzero;stroke:none"
             d="M 0,0 C -0.479,-4.429 -0.717,-11.841 -0.717,-22.238 H 16.907 L 13.612,-38.701 H -0.717 v -30.038 c 0,-4.527 0.288,-7.462 0.86,-8.808 0.954,-2.6 3.246,-3.9 6.876,-3.9 2.482,0 4.584,0.481 6.303,1.444 l 3.008,-14.441 c -6.017,-2.887 -12.272,-4.331 -18.766,-4.331 -7.64,0 -13.228,1.203 -16.76,3.61 -4.298,2.79 -6.446,7.604 -6.446,14.441 v 42.023 h -6.017 v 16.463 h 6.017 c 0,8.375 0.286,14.536 0.859,18.484 z" /></g><g
           transform="translate(637.6542,241.0794)"
           id="g52"><path
             id="path54"
             style="fill:#000000;fill-opacity:1;fill-rule:nonzero;stroke:none"
             d="m 0,0 c -2.797,0 -4.724,-1.368 -5.784,-4.104 -1.351,-3.303 -2.023,-9.248 -2.023,-17.834 0,-7.642 0.433,-12.787 1.301,-15.426 1.059,-3.304 3.276,-4.954 6.65,-4.954 2.985,0 5.036,1.744 6.144,5.237 1.108,3.489 1.662,9.624 1.662,18.398 0,7.17 -0.578,12.078 -1.735,14.721 C 5.06,-1.323 2.985,0 0,0 m 1.011,17.126 c 9.926,0 17.927,-2.831 24,-8.492 C 31.756,2.311 35.13,-7.03 35.13,-19.39 c 0,-13.493 -3.711,-23.778 -11.132,-30.854 -6.361,-6.227 -14.507,-9.341 -24.433,-9.341 -10.795,0 -19.253,3.348 -25.372,10.048 -6.123,6.699 -9.18,16.041 -9.18,28.025 0,11.509 3.275,20.826 9.83,27.952 6.554,7.124 15.275,10.686 26.168,10.686" /></g><g
           transform="translate(841.733,183.8139)"
           id="g56"><path
             id="path58"
             style="fill:#000000;fill-opacity:1;fill-rule:nonzero;stroke:none"
             d="m 0,0 c -3.954,-1.545 -11.377,-2.32 -18.218,-2.32 -9.64,0 -15.903,2.465 -18.795,7.395 -1.929,3.191 -2.892,9.376 -2.892,18.563 v 51.043 c 0,14.886 -0.297,14.784 -0.875,18.072 l 24.874,3.716 c 0.771,-4.836 1.158,-10.893 1.158,-18.529 V 31.903 c 0,-6.96 0.288,-11.409 0.866,-13.341 0.77,-2.226 2.505,-3.335 5.205,-3.335 0.868,0 3.762,0.145 4.628,0.435 z" /></g><g
           transform="translate(581.6277,280.3284)"
           id="g60"><path
             id="path62"
             style="fill:#000000;fill-opacity:1;fill-rule:nonzero;stroke:none"
             d="M 0,0 C -0.479,-4.432 -0.717,-11.848 -0.717,-22.251 H 16.907 L 13.612,-38.724 H -0.717 V -68.78 c 0,-4.529 0.288,-7.466 0.86,-8.813 0.954,-2.602 3.246,-3.902 6.876,-3.902 2.482,0 4.584,0.481 6.303,1.445 L 16.33,-94.5 c -6.017,-2.889 -12.272,-4.334 -18.766,-4.334 -7.64,0 -13.228,1.205 -16.76,3.612 -4.298,2.793 -6.446,7.609 -6.446,14.45 v 42.048 h -6.017 v 16.473 h 6.017 c 0,8.38 0.286,14.544 0.859,18.495 z" /></g><g
           transform="translate(753.4186,205.4846)"
           id="g64"><path
             id="path66"
             style="fill:#000000;fill-opacity:1;fill-rule:nonzero;stroke:none"
             d="m 0,0 c 0,-4.22 2.52,-7.032 6.723,-7.032 2.109,0 4.909,1.267 5.751,2.39 V 8.014 C 2.239,8.296 0,4.217 0,0 m 19.204,-17.858 c -3.505,-2.953 -9.537,-6.046 -18.088,-6.046 -17.945,0 -24.811,10.685 -24.811,23.623 0,13.779 11.919,23.623 32.103,23.623 0.985,0 3.368,0 4.066,-0.141 v 4.498 c 0,4.22 -0.561,6.75 -5.888,6.75 -8.133,0 -14.439,-2.953 -20.607,-7.591 l -8.832,15.186 c 8.969,5.484 20.607,10.263 32.52,10.263 13.741,0 23.415,-4.638 26.078,-13.216 0.979,-3.234 1.123,-5.905 1.123,-11.251 L 36.587,2.812 c 0,-6.046 0.562,-10.97 5.607,-14.204 L 28.173,-25.031 c -3.505,1.127 -7.846,4.921 -8.969,7.173" /></g><g
           transform="translate(77.1919,105.7152)"
           id="g68"><path
             id="path70"
             style="fill:#000000;fill-opacity:1;fill-rule:nonzero;stroke:none"
             d="m 0,0 v -14.597 h 1.272 c 1.145,0 1.887,0.053 2.226,0.159 1.336,0.466 2.004,1.463 2.004,2.99 V -3.18 C 5.502,-1.061 4.463,0 2.386,0 Z M -10.59,8.937 H 3.308 C 11.83,8.915 16.092,4.876 16.092,-3.18 v -8.268 c 0,-5.915 -3.042,-9.742 -9.127,-11.481 -1.463,-0.425 -3.562,-0.635 -6.297,-0.635 H 0 v -23.534 h -10.59 z" /></g><g
           transform="translate(115.9576,79.225)"
           id="g72"><path
             id="path74"
             style="fill:#000000;fill-opacity:1;fill-rule:nonzero;stroke:none"
             d="M 0,0 -2.544,16.95 -5.088,0 Z m 10.781,-0.509 3.021,-20.098 H 3.117 L 1.368,-8.968 h -7.792 l -1.78,-11.639 h -10.653 l 3.02,20.003 6.456,36.031 H 4.357 Z" /></g><g
           transform="translate(145.7554,105.7152)"
           id="g76"><path
             id="path78"
             style="fill:#000000;fill-opacity:1;fill-rule:nonzero;stroke:none"
             d="m 0,0 v -14.597 h 1.272 c 1.145,0 1.887,0.053 2.226,0.159 1.336,0.466 2.004,1.463 2.004,2.99 V -3.18 C 5.502,-1.061 4.463,0 2.386,0 Z M -10.59,8.937 H 3.308 C 11.83,8.915 16.092,4.876 16.092,-3.18 v -8.268 c 0,-5.068 -2.311,-8.354 -6.933,-9.859 L 19.367,-47.098 H 7.823 l -7.25,24.106 H 0 v -24.106 h -10.59 z" /></g><g
           transform="translate(186.2066,79.225)"
           id="g80"><path
             id="path82"
             style="fill:#000000;fill-opacity:1;fill-rule:nonzero;stroke:none"
             d="M 0,0 -2.544,16.95 -5.088,0 Z m 10.781,-0.509 3.021,-20.098 H 3.117 L 1.368,-8.968 h -7.792 l -1.78,-11.639 h -10.653 l 3.02,20.003 6.456,36.031 H 4.357 Z" /></g><g
           transform="translate(235.149,90.9916)"
           id="g84"><path
             id="path86"
             style="fill:#000000;fill-opacity:1;fill-rule:nonzero;stroke:none"
             d="m 0,0 h 13.229 v -21.275 c 0,-8.057 -4.579,-12.095 -13.738,-12.117 -9.137,0 -13.706,4.039 -13.706,12.117 v 33.582 c 0,8.056 4.569,12.085 13.706,12.085 9.159,0 13.738,-4.029 13.738,-12.085 V 4.356 H 2.64 v 7.951 c 0,2.098 -1.039,3.159 -3.117,3.18 H -0.54 c -2.057,0 -3.085,-1.06 -3.085,-3.18 v -33.582 c 0,-2.099 1.039,-3.149 3.116,-3.149 2.1,0 3.149,1.05 3.149,3.149 V -8.969 H 0 Z" /></g><g
           transform="translate(272.0074,79.225)"
           id="g88"><path
             id="path90"
             style="fill:#000000;fill-opacity:1;fill-rule:nonzero;stroke:none"
             d="M 0,0 -2.544,16.95 -5.088,0 Z m 10.781,-0.509 3.021,-20.098 H 3.117 L 1.368,-8.968 h -7.792 l -1.78,-11.639 h -10.653 l 3.02,20.003 6.456,36.031 H 4.357 Z" /></g><g
           transform="translate(291.2144,114.6518)"
           id="g92"><path
             id="path94"
             style="fill:#000000;fill-opacity:1;fill-rule:nonzero;stroke:none"
             d="m 0,0 h 10.463 l 7.059,-27.604 V 0 h 9.923 V -56.034 H 16.982 l -6.742,26.84 v -26.84 H 0 Z" /></g><g
           transform="translate(342.9234,79.225)"
           id="g96"><path
             id="path98"
             style="fill:#000000;fill-opacity:1;fill-rule:nonzero;stroke:none"
             d="M 0,0 -2.544,16.95 -5.088,0 Z m 10.781,-0.509 3.021,-20.098 H 3.117 L 1.368,-8.968 h -7.792 l -1.78,-11.639 h -10.653 l 3.02,20.003 6.456,36.031 H 4.357 Z" /></g><g
           transform="translate(372.7212,105.7152)"
           id="g100"><path
             id="path102"
             style="fill:#000000;fill-opacity:1;fill-rule:nonzero;stroke:none"
             d="m 0,0 v -14.597 h 1.272 c 1.145,0 1.887,0.053 2.226,0.159 1.336,0.466 2.004,1.463 2.004,2.99 V -3.18 C 5.502,-1.061 4.463,0 2.386,0 Z M -10.59,8.937 H 3.308 C 11.83,8.915 16.092,4.876 16.092,-3.18 v -8.268 c 0,-5.068 -2.311,-8.354 -6.933,-9.859 L 19.367,-47.098 H 7.823 l -7.25,24.106 H 0 v -24.106 h -10.59 z" /></g><g
           transform="translate(394.8882,70.225)"
           id="g104"><path
             id="path106"
             style="fill:#000000;fill-opacity:1;fill-rule:nonzero;stroke:none"
             d="M 0,0 H 12.752 V -9.826 L 9.158,-22.007 H 1.78 l 1.845,10.4 H 0 Z" /></g><g
           transform="translate(431.7447,114.6518)"
           id="g108"><path
             id="path110"
             style="fill:#000000;fill-opacity:1;fill-rule:nonzero;stroke:none"
             d="m 0,0 h 10.59 v -23.533 h 6.265 V 0 H 27.446 V -56.034 H 16.855 v 23.533 H 10.59 V -56.034 H 0 Z" /></g><g
           transform="translate(483.4541,79.225)"
           id="g112"><path
             id="path114"
             style="fill:#000000;fill-opacity:1;fill-rule:nonzero;stroke:none"
             d="M 0,0 -2.545,16.95 -5.088,0 Z m 10.781,-0.509 3.02,-20.098 H 3.117 l -1.75,11.639 h -7.791 l -1.781,-11.639 h -10.652 l 3.019,20.003 6.457,36.031 H 4.357 Z" /></g><g
           transform="translate(508.5127,114.6518)"
           id="g116"><path
             id="path118"
             style="fill:#000000;fill-opacity:1;fill-rule:nonzero;stroke:none"
             d="M 0,0 5.502,-21.625 11.004,0 H 22.197 L 11.035,-31.865 10.812,-32.438 V -56.034 H 0.223 V -32.47 L -0.031,-31.865 -11.193,0 Z" /></g><g
           transform="translate(568.4912,102.185)"
           id="g120"><path
             id="path122"
             style="fill:#000000;fill-opacity:1;fill-rule:nonzero;stroke:none"
             d="M 0,0 C 0,2.078 -1.039,3.127 -3.117,3.148 H -3.18 C -5.236,3.148 -6.266,2.1 -6.266,0 v -33.582 c 0,-2.12 1.039,-3.18 3.118,-3.18 2.099,0 3.148,1.06 3.148,3.18 z m 10.59,-33.582 c 0,-7.187 -3.276,-11.151 -9.826,-11.894 0.041,-0.487 3.316,-0.752 9.826,-0.795 v -7.727 c -6,0 -10.061,0.487 -12.18,1.463 -2.842,1.271 -4.293,3.594 -4.357,6.964 -7.272,0.467 -10.908,4.463 -10.908,11.989 V 0 c 0,8.057 4.568,12.085 13.707,12.085 C 6.01,12.085 10.59,8.057 10.59,0 Z" /></g><g
           transform="translate(613.8389,69.7162)"
           id="g124"><path
             id="path126"
             style="fill:#000000;fill-opacity:1;fill-rule:nonzero;stroke:none"
             d="m 0,0 c 0,-8.057 -4.578,-12.095 -13.738,-12.116 -9.137,0 -13.705,4.039 -13.705,12.116 v 44.808 h 10.589 V 0 c 0,-2.099 1.038,-3.148 3.116,-3.148 2.099,0 3.148,1.049 3.148,3.148 V 44.808 H 0 Z" /></g><g
           transform="translate(621.79,114.6518)"
           id="g128"><path
             id="path130"
             style="fill:#000000;fill-opacity:1;fill-rule:nonzero;stroke:none"
             d="M 0,0 H 24.932 V -8.937 H 10.59 v -14.596 h 12.338 v -8.968 H 10.59 v -14.597 h 14.342 v -8.936 l -24.932,0 z" /></g><g
           transform="translate(696.3643,69.7162)"
           id="g132"><path
             id="path134"
             style="fill:#000000;fill-opacity:1;fill-rule:nonzero;stroke:none"
             d="m 0,0 c 0,-8.057 -4.58,-12.095 -13.738,-12.116 -9.139,0 -13.707,4.039 -13.707,12.116 v 33.582 c 0,8.057 4.568,12.085 13.707,12.085 C -4.58,45.667 0,41.639 0,33.582 v -7.95 h -10.59 v 7.95 c 0,2.099 -1.039,3.159 -3.117,3.181 h -0.063 c -2.056,0 -3.085,-1.061 -3.085,-3.181 V 0 c 0,-2.099 1.039,-3.148 3.117,-3.148 2.099,0 3.148,1.049 3.148,3.148 V 7.95 H 0 Z" /></g><g
           transform="translate(714.2686,105.7152)"
           id="g136"><path
             id="path138"
             style="fill:#000000;fill-opacity:1;fill-rule:nonzero;stroke:none"
             d="m 0,0 v -14.597 h 1.271 c 1.145,0 1.887,0.053 2.227,0.159 1.336,0.466 2.004,1.463 2.004,2.99 V -3.18 C 5.502,-1.061 4.463,0 2.385,0 Z M -10.59,8.937 H 3.307 C 11.83,8.915 16.092,4.876 16.092,-3.18 v -8.268 c 0,-5.068 -2.311,-8.354 -6.934,-9.859 L 19.367,-47.098 H 7.822 l -7.25,24.106 H 0 v -24.106 h -10.59 z" /></g><g
           transform="translate(737.0068,114.6518)"
           id="g140"><path
             id="path142"
             style="fill:#000000;fill-opacity:1;fill-rule:nonzero;stroke:none"
             d="M 0,0 H 24.932 V -8.937 H 10.59 v -14.596 h 12.338 v -8.968 H 10.59 v -14.597 h 14.342 v -8.936 l -24.932,0 z" /></g><g
           transform="translate(768.6162,114.6518)"
           id="g144"><path
             id="path146"
             style="fill:#000000;fill-opacity:1;fill-rule:nonzero;stroke:none"
             d="M 0,0 H 24.934 V -8.937 H 10.59 v -14.596 h 12.34 v -8.968 H 10.59 v -14.597 h 14.344 v -8.936 l -24.934,0 z" /></g><g
           transform="translate(810.8174,105.7152)"
           id="g148"><path
             id="path150"
             style="fill:#000000;fill-opacity:1;fill-rule:nonzero;stroke:none"
             d="m 0,0 v -14.597 h 1.271 c 1.145,0 1.887,0.053 2.227,0.159 1.336,0.466 2.004,1.463 2.004,2.99 V -3.18 C 5.502,-1.061 4.463,0 2.385,0 Z M -10.59,8.937 H 3.307 C 11.83,8.915 16.092,4.876 16.092,-3.18 v -8.268 c 0,-5.068 -2.311,-8.354 -6.934,-9.859 L 19.367,-47.098 H 7.822 l -7.25,24.106 H 0 v -24.106 h -10.59 z" /></g><path
           id="path152"
           style="fill:#000000;fill-opacity:1;fill-rule:nonzero;stroke:none"
           d="m 832.729,70.225 h 11.924 V 58.618 h -11.924 z" /></g></g></g></svg>