<?xml version="1.0" encoding="UTF-8" standalone="no"?>
<svg
   xmlns:dc="http://purl.org/dc/elements/1.1/"
   xmlns:cc="http://creativecommons.org/ns#"
   xmlns:rdf="http://www.w3.org/1999/02/22-rdf-syntax-ns#"
   xmlns:svg="http://www.w3.org/2000/svg"
   xmlns="http://www.w3.org/2000/svg"
   viewBox="0 0 3439.3733 3401.5732"
   height="3401.5732"
   width="3439.3733"
   xml:space="preserve"
   id="svg2"
   version="1.1"><metadata
     id="metadata8"><rdf:RDF><cc:Work
         rdf:about=""><dc:format>image/svg+xml</dc:format><dc:type
           rdf:resource="http://purl.org/dc/dcmitype/StillImage" /></cc:Work></rdf:RDF></metadata><defs
     id="defs6"><clipPath
       id="clipPath18"
       clipPathUnits="userSpaceOnUse"><path
         id="path16"
         d="M 0,2551.181 H 2579.528 V 0 H 0 Z" /></clipPath><clipPath
       id="clipPath34"
       clipPathUnits="userSpaceOnUse"><path
         id="path32"
         d="m 1174.66,0 h 633.492 V 888.227 H 1174.66 Z" /></clipPath></defs><g
     transform="matrix(1.3333333,0,0,-1.3333333,0,3401.5733)"
     id="g10"><g
       id="g12"><g
         clip-path="url(#clipPath18)"
         id="g14"><g
           transform="translate(603.1365,725.9897)"
           id="g20"><path
             id="path22"
             style="fill:#ed1c24;fill-opacity:1;fill-rule:nonzero;stroke:none"
             d="m 0,0 c 0,-106.789 64.2,-177.88 171.202,-177.88 53.555,0 124.95,31.963 146.349,60.468 V 202.759 C 57.008,209.951 0,106.702 0,0 m 488.886,-451.836 c -89.262,-74.742 -242.728,-153.003 -460.382,-153.003 -456.775,0 -631.641,270.416 -631.641,597.671 0,348.784 303.269,597.757 817.227,597.757 24.965,0 85.635,0 103.461,-3.519 v 113.85 c 0,106.7 -14.296,170.732 -149.88,170.732 -207.029,0 -367.598,-74.655 -524.636,-192.155 l -224.771,384.287 c 228.344,138.858 524.594,259.793 827.894,259.793 349.73,0 596.031,-117.415 663.784,-334.426 24.975,-81.824 28.506,-149.482 28.506,-284.669 L 931.387,71.094 c 0,-153.004 14.296,-277.501 142.698,-359.305 L 717.23,-633.366 c -89.176,28.527 -199.84,124.583 -228.344,181.53" /></g><g
           transform="translate(2154.8323,2003.2646)"
           id="g24"><path
             id="path26"
             style="fill:#231f20;fill-opacity:1;fill-rule:nonzero;stroke:none"
             d="m 0,0 h 339.095 l -82.16,-405.623 H 0 v -740.071 c 0,-256.077 35.696,-313.09 192.734,-313.09 57.097,0 117.767,14.255 156.994,35.592 l 74.967,-355.784 c -156.996,-74.72 -314.034,-106.702 -467.497,-106.702 -346.199,0 -578.073,88.907 -578.073,444.689 V -405.623 H -770.83 V 0 h 149.955 c 0,181.531 3.53,334.535 21.4,455.467 l 617.343,92.45 C -3.575,352.22 0,170.798 0,0" /></g></g></g><g
       id="g28"><g
         clip-path="url(#clipPath34)"
         id="g30"><g
           transform="translate(603.1365,725.9897)"
           id="g36"><path
             id="path38"
             style="fill:#ed1c24;fill-opacity:1;fill-rule:nonzero;stroke:none"
             d="m 0,0 c 0,-106.789 64.2,-177.88 171.202,-177.88 53.555,0 124.95,31.963 146.349,60.468 V 202.759 C 57.008,209.951 0,106.702 0,0 m 488.886,-451.836 c -89.262,-74.742 -242.728,-153.003 -460.382,-153.003 -456.775,0 -631.641,270.416 -631.641,597.671 0,348.784 303.269,597.757 817.227,597.757 24.965,0 85.635,0 103.461,-3.519 v 113.85 c 0,106.7 -14.296,170.732 -149.88,170.732 -207.029,0 -367.598,-74.655 -524.636,-192.155 l -224.771,384.287 c 228.344,138.858 524.594,259.793 827.894,259.793 349.73,0 596.031,-117.415 663.784,-334.426 24.975,-81.824 28.506,-149.482 28.506,-284.669 L 931.387,71.094 c 0,-153.004 14.296,-277.501 142.698,-359.305 L 717.23,-633.366 c -89.176,28.527 -199.84,124.583 -228.344,181.53" /></g></g></g></g></svg>